<svg xmlns="http://www.w3.org/2000/svg" width="76" height="71.5" viewBox="0 0 76 71.5"><path d="M68.875,38H57V27.786c0-5.634,4.26-10.214,9.5-10.214h1.188a3.7,3.7,0,0,0,3.563-3.83V6.08a3.7,3.7,0,0,0-3.562-3.83H66.5c-13.122,0-23.75,11.427-23.75,25.536v38.3a7.409,7.409,0,0,0,7.125,7.661h19A7.409,7.409,0,0,0,76,66.089V45.661A7.409,7.409,0,0,0,68.875,38Zm-42.75,0H14.25V27.786c0-5.634,4.26-10.214,9.5-10.214h1.187a3.7,3.7,0,0,0,3.563-3.83V6.08a3.7,3.7,0,0,0-3.563-3.83H23.75C10.628,2.25,0,13.677,0,27.786v38.3A7.409,7.409,0,0,0,7.125,73.75h19a7.409,7.409,0,0,0,7.125-7.661V45.661A7.409,7.409,0,0,0,26.125,38Z" transform="translate(0 -2.25)" fill="rgba(255,255,255,0.69)"/></svg>